<?xml version="1.0" encoding="utf-8"?>
<!-- Generator: Adobe Illustrator 21.1.0, SVG Export Plug-In . SVG Version: 6.00 Build 0)  -->
<svg version="1.1" id="Ebene_1" xmlns="http://www.w3.org/2000/svg" xmlns:xlink="http://www.w3.org/1999/xlink" x="0px" y="0px"
	 viewBox="0 0 89 63" style="enable-background:new 0 0 89 63;" xml:space="preserve">
<style type="text/css">
	.st0{fill:#551805;}
	.st1{fill:#FFFFFF;}
	.st2{fill:#090D0D;}
</style>
<g>
	<path class="st0" d="M5.2391572,0.7798184c-0.0059218,0-0.010325-0.0015184-0.0162463-0.0015184
		c-2.5637288,0-4.6426497,2.1158164-4.6426497,4.7263103V57.495388c0,2.6111031,2.0789206,4.7263107,4.6426497,4.7263107h0.0028849
		l0,0h72.1407623H88.570282V0.7798184V0.7783L5.2391572,0.7798184z"/>
	<g id="XMLID_1_">
		<g>
			<path class="st1" d="M63.654213,10.7559509c0.4421616,0.1629009,0.7388687,0.5992422,0.7243271,1.0704899
				c-0.0116348,0.4857931-0.3490753,0.916316-0.8145027,1.0414009c-0.447979,0.1221752-0.9395866-0.0494518-1.2072105-0.4305229
				h-19.696434c-0.0029068,0-0.0029068,0-0.0058174,0c-0.3228912,0.0145445-0.6341476,0.0436335-0.9512253,0.1396284
				c-0.3374367,0.104722-0.6370544,0.2588959-0.936676,0.4450684c-0.5672455,0.3636169-0.9774055,0.9483147-1.2275734,1.5650101
				c-0.1541748,0.3810711-0.2065353,0.7766867-0.2239876,1.1868467c0.4305229-0.4567032,0.9541321-0.8203211,1.5330086-1.0646715
				c0.5817909-0.2443514,1.1752129-0.3461637,1.8064537-0.3694353h16.5227814
				c0.2908936-0.4072523,0.8232269-0.573061,1.2915688-0.4014339c0.4392471,0.1629009,0.7359619,0.5992413,0.7272339,1.0704899
				c-0.0116348,0.4799747-0.3432541,0.916316-0.8145027,1.0443096c-0.4450684,0.1250839-0.9337692-0.0494518-1.2042999-0.4276142
				h-16.516964c-0.3199844,0.0145445-0.6370583,0.0319986-0.9424973,0.1279936
				c-0.3403435,0.1134481-0.6399651,0.2530775-0.936676,0.4479761c-0.5585175,0.3665276-0.9715881,0.907589-1.2246666,1.5242844
				c-0.1599922,0.3985252-0.2239876,0.8028679-0.2414398,1.2304821c0.8755913-0.9250431,2.0769806-1.4050179,3.3394623-1.4282894
				h13.3694878c0.5934258-0.6516018,1.70755-0.3548908,1.9024467,0.5032463
				c0.0145454,0.0145454,0.0290909,0.0319996,0.0436363,0.0494518c0.468338,0.5556087,0.8988609,1.117033,1.3002968,1.7191849
				c0.3839798,0.5701523,0.6894188,1.1897564,0.9861298,1.8093605c0.5846977,1.2188454,0.9512215,2.5249596,1.2479362,3.8368912
				c0.296711,1.3119316,0.3839798,2.673317,0.4043427,4.0114288v17.834713
				c-0.0203629,0.5526962-0.0959969,1.0646706-0.2821693,1.5911903c-0.1658096,0.4654274-0.4276123,0.9454041-0.7534142,1.3235664
				c-0.4421616,0.5090637-0.9657707,0.9686775-1.5882835,1.2479362c-0.305439,0.133812-0.6341476,0.2792587-0.9628563,0.3374367
				c-0.3432579,0.0610886-0.6719666,0.1018143-1.0268593,0.1163559H38.0351791V15.7738724
				c0.0407257-1.0443087,0.3345261-2.1089811,1.0355835-2.911849c0.4479752-0.5119734,0.9686737-0.9686766,1.5911903-1.250844
				c0.3141632-0.1396294,0.631237-0.2705317,0.9715843-0.3374367c0.3374367-0.066906,0.6690559-0.104722,1.0210381-0.1134491
				h19.7022514C62.6448135,10.7501335,63.1858749,10.5843239,63.654213,10.7559509z M60.6318245,47.2835121v-17.825985
				c-0.0261803-1.3672028-0.1541748-2.7140408-0.4479752-4.0550632c-0.2850761-1.3061142-0.7272377-2.5744114-1.3293877-3.7670765
				c-0.4247055-0.8435936-0.936676-1.6202793-1.5271912-2.3562412c-0.5352478,0.2559853-1.1810303,0.0494518-1.4631996-0.477066
				H42.6603928c-0.3258018,0.0174522-0.6370583,0.0494518-0.9570427,0.1396294
				c-0.3374367,0.1047211-0.6370544,0.2618046-0.936676,0.4479752c-0.5672455,0.3607101-0.9774055,0.945406-1.2275734,1.5650101
				c-0.1570816,0.3810711-0.2065353,0.7854137-0.2239876,1.1955757v8.2672062
				c0.4305229-0.4567032,0.9541321-0.8174114,1.5330086-1.0617619c0.5817909-0.247261,1.1752129-0.3490734,1.8064537-0.372345
				h1.9431725c0.3228912-0.3781624,0.8726807-0.4916115,1.3206596-0.27635
				c0.4247055,0.2007179,0.6777802,0.6661472,0.6225128,1.1315784c-0.0581818,0.4799747-0.4305229,0.8785-0.9104996,0.9657688
				c-0.4567032,0.0814495-0.9279518-0.1396294-1.15485-0.543972H42.657486
				c-0.3199844,0.0145435-0.6486969,0.0349064-0.9541359,0.1367207c-0.3432541,0.1105385-0.6428757,0.2559853-0.9424934,0.4537945
				c-0.5410652,0.3548908-0.9570427,0.8901348-1.1955757,1.4893761c-0.1483574,0.3548927-0.2356262,0.7243271-0.2501678,1.1053963
				v10.8212585c0.6050568,0,1.1112137,0.5061569,1.1112137,1.1112137c0,0.6050606-0.5061569,1.1112175-1.1112137,1.1112175
				v4.1365128H57.295269c0.6923294-0.0290909,1.2944794-0.2123528,1.8820877-0.5817871
				c0.5614243-0.3519821,0.9744949-0.933773,1.2217522-1.5417404c0.1570854-0.3897972,0.2181702-0.7941399,0.2327156-1.2101173
				C60.6318245,47.2893295,60.6318245,47.2864227,60.6318245,47.2835121z"/>
			<path class="st1" d="M36.7639732,51.2105827c0,0.2094421,0,0.4188843,0,0.6254196
				c0,0.1192665-0.0930862,0.0727234-0.2036285,0.0727234c-1.1228485,0-2.2486115,0-3.37146,0c-1.9257183,0-3.8514366,0-5.7771549,0
				c-1.9606266,0-3.9154339,0-5.8789692,0c-1.2275734,0-2.4551449,0-3.6827183,0c-0.1163578,0-0.2268963,0-0.3461628,0
				c-1.0617638-0.0436325-2.0886202-0.3461609-2.9147587-1.0414009c-0.5177917-0.4421577-0.9686775-0.9628563-1.2479353-1.5882797
				c-0.1367207-0.3112564-0.2734404-0.6283302-0.3403463-0.9657669c-0.066905-0.3461647-0.0989037-0.6748772-0.1134481-1.0210381
				v-17.834713c0.0058174-0.2268982,0.0087261-0.4567032,0.0145445-0.6865101
				c0.0174532-1.3381119,0.2268972-2.6907692,0.543972-3.9794292c0.3287096-1.3410225,0.7999582-2.6355,1.4311981-3.8630733
				c0.2908945-0.5759697,0.6225138-1.146122,1.0094023-1.6668224c0.4217958-0.5701523,0.8726816-1.0966702,1.3584757-1.6115532
				c-0.9279518-0.9250431-1.8529949-1.8500853-2.778038-2.7780371c-1.1810303-1.1781216-2.3620596-2.3591509-3.5430889-3.5401802
				c-0.0552702-0.0581789-0.1163578-0.1134491-0.171628-0.171628c0.7010546,0,1.3962917,0,2.0944366,0
				c1.6813679,0,3.3627348,0,5.0441027,0c2.0420761,0,4.0870609,0,6.129137,0c1.7831802,0,3.5692692,0,5.3524494,0
				c0.9046803,0,1.8064518,0,2.711134,0c0.020359,0,0.0407219,0,0.0639954,0
				c0.5497894,0.0203629,1.0675812,0.0989046,1.5911903,0.2850761c0.468338,0.1629009,0.9483147,0.4217968,1.3206596,0.7475977
				c0.5119705,0.4508858,0.9686775,0.9628592,1.2537537,1.594099c0.2850761,0.6457853,0.4217949,1.2828426,0.4508858,1.9868059
				c0,0.4421597,0,0.8785,0,1.3177509c0,1.1723022,0,2.3416958,0,3.5110893c0,1.6900959,0,3.3714619,0,5.0615559
				c0,1.9809895,0,3.961977,0,5.9458752c0,1.7773609,0,3.5518169,0,5.3320866l-2.8973045-2.9031219
				c-0.3345299,0.765049-0.7330551,1.4748306-1.2188492,2.1467972c-0.7883205,1.0821266-1.7744522,1.9460793-2.9293003,2.6093178
				c-1.1373959,0.6545143-2.5075073,0.9628601-3.8165302,0.9279518c-0.6690559-0.020359-1.3293858-0.1221733-1.9635353-0.3170738
				c-0.6196041-0.1861725-1.2566624-0.4479752-1.8006325-0.8057747c-1.0937614-0.7185097-2.1206188-1.6173706-2.8216724-2.7314949
				c-0.7155991-1.1373978-1.28866-2.3562431-1.5824642-3.676899c-0.2879848-1.3119335-0.3985233-2.6674995-0.2443504-4.0056133
				c0.1541748-1.3293839,0.5003376-2.635498,1.0908527-3.8427086c0.5876064-1.213028,1.3322945-2.2107944,2.330061-3.1096573
				l-0.9134064-0.8901348c-0.945406,0.869772-1.6435528,1.7686348-2.2747917,2.8914852
				c-0.6050606,1.0763073-1.0297661,2.2544289-1.2828426,3.4587307c-0.2705326,1.2682972-0.3461647,2.568594-0.2443504,3.8601627
				c0.1018124,1.2682972,0.3868885,2.5220509,0.8494091,3.7059917c0.4712486,1.1897545,1.1315784,2.254425,1.9199009,3.2551041
				c0.3985252,0.5119705,0.8930454,0.9686737,1.393383,1.3730164c0.4974289,0.4072533,1.0443096,0.7941437,1.6173706,1.0821266
				c1.175211,0.5905151,2.4027843,0.9424973,3.7176247,1.0239487c1.2828426,0.0814476,2.5831394-0.1861725,3.7699871-0.6690559
				c0.2647133-0.1105423,0.5148811-0.2414436,0.7708683-0.3577995l6.5305729,6.521843c0,0.5846977,0,1.1693916,0,1.757
				C36.7639732,49.232502,36.7639732,50.2186317,36.7639732,51.2105827z M32.5111008,32.695179l-2.1438885-2.1409817
				c-0.267622,0.3316193-0.5556087,0.6283321-0.9803123,0.744688c-0.4159794,0.1221771-0.8552284,0.0727253-1.2304821-0.162899
				c-0.5410633-0.3374386-0.9366798-1.0094032-1.0355835-1.6377335c-0.0494518-0.3258018-0.1047211-0.6748753-0.0523605-1.0006752
				c0.0523605-0.3490734,0.133812-0.6603298,0.2588959-0.9890404l-4.0754261-3.9852486
				c-0.2792568,0.6079693-0.5119724,1.1635761-0.6632366,1.8180885c-0.1570835,0.6777821-0.2647152,1.355566-0.2938042,2.0595284
				c-0.029089,0.6865101,0.0145454,1.3672028,0.1076317,2.0537128c0.0930862,0.6777821,0.2879848,1.3322945,0.5032463,1.9809875
				c0.2065353,0.5876064,0.5207005,1.192667,0.8814087,1.7017307c0.1978073,0.2821655,0.3985252,0.5846977,0.6370583,0.8261375
				c0.2530766,0.2530785,0.506155,0.4828835,0.782505,0.7155991c0.5119724,0.4247055,1.1606674,0.6806946,1.7919064,0.8726845
				c0.27635,0.0814476,0.6632385,0.1250839,0.9512234,0.1163559c0.3228931-0.0145454,0.6574211-0.0174522,0.9686775-0.0989037
				c0.6486931-0.1687164,1.28866-0.4188881,1.8209972-0.8435936c0.2618046-0.2152596,0.5468807-0.4247055,0.7708683-0.6865082
				c0.2414417-0.2734413,0.4654312-0.5527,0.6836014-0.8435936C32.3103828,33.0355225,32.4092865,32.8609886,32.5111008,32.695179z"
				/>
			<path class="st2" d="M36.7639732,43.551342c0,0.9803123,0,1.9577179,0,2.9380302l-6.5305729-6.521843
				c-0.2559872,0.1163559-0.506155,0.2472572-0.7708683,0.3577995c-1.1868477,0.4828835-2.4871445,0.7505035-3.7699871,0.6690559
				c-1.3148403-0.0814514-2.5424137-0.4334335-3.7176247-1.0239487c-0.573061-0.2879829-1.1199417-0.6748734-1.6173706-1.0821266
				c-0.5003376-0.4043427-0.9948578-0.8610458-1.393383-1.3730164c-0.7883224-1.000679-1.4486523-2.0653496-1.9199009-3.2551041
				c-0.4625206-1.1839409-0.7475967-2.4376945-0.8494091-3.7059917c-0.1018143-1.2915688-0.0261822-2.5918655,0.2443504-3.8601627
				c0.2530766-1.2043018,0.6777821-2.3824234,1.2828426-3.4587307c0.6312389-1.1228504,1.3293858-2.0217133,2.2747917-2.8914852
				l0.9134064,0.8901348c-0.9977665,0.8988628-1.7424545,1.8966293-2.330061,3.1096573
				c-0.5905151,1.2072105-0.9366779,2.5133247-1.0908527,3.8427086c-0.1541729,1.3381138-0.0436344,2.6936798,0.2443504,4.0056133
				c0.2938042,1.3206558,0.8668652,2.5395012,1.5824642,3.676899c0.7010536,1.1141243,1.727911,2.0129852,2.8216724,2.7314949
				c0.5439701,0.3577995,1.1810284,0.6196022,1.8006325,0.8057747c0.6341496,0.1949005,1.2944794,0.2967148,1.9635353,0.3170738
				c1.3090229,0.0349083,2.6791344-0.2734375,3.8165302-0.9279518c1.1548481-0.6632385,2.1409798-1.5271912,2.9293003-2.6093178
				c0.4857941-0.6719666,0.8843193-1.3817482,1.2188492-2.1467972l2.8973045,2.9031219c0,0.2821655,0,0.5672417,0,0.849411
				C36.7639732,39.7115402,36.7639732,41.6343498,36.7639732,43.551342z"/>
			<path class="st2" d="M30.3672123,30.5541973l2.1438885,2.1409817c-0.1018143,0.1658096-0.2007179,0.3403435-0.3170738,0.5003357
				c-0.2181702,0.2908936-0.4421597,0.5701523-0.6836014,0.8435936c-0.2239876,0.2618027-0.5090637,0.4712486-0.7708683,0.6865082
				c-0.5323372,0.4247055-1.1723042,0.6748772-1.8209972,0.8435936c-0.3112564,0.0814514-0.6457844,0.0843582-0.9686775,0.0989037
				c-0.2879848,0.008728-0.6748734-0.0349083-0.9512234-0.1163559c-0.6312389-0.1919899-1.2799339-0.447979-1.7919064-0.8726845
				c-0.27635-0.2327156-0.5294285-0.4625206-0.782505-0.7155991c-0.238533-0.2414398-0.4392509-0.543972-0.6370583-0.8261375
				c-0.3607082-0.5090637-0.6748734-1.1141243-0.8814087-1.7017307c-0.2152615-0.6486931-0.4101601-1.3032055-0.5032463-1.9809875
				c-0.0930862-0.6865101-0.1367207-1.3672028-0.1076317-2.0537128c0.029089-0.7039623,0.1367207-1.3817463,0.2938042-2.0595284
				c0.1512642-0.6545124,0.3839798-1.2101192,0.6632366-1.8180885l4.0754261,3.9852486
				c-0.1250839,0.3287106-0.2065353,0.639967-0.2588959,0.9890404c-0.0523605,0.3257999,0.0029087,0.6748734,0.0523605,1.0006752
				c0.0989037,0.6283302,0.4945202,1.3002949,1.0355835,1.6377335c0.3752537,0.2356243,0.8145027,0.2850761,1.2304821,0.162899
				C29.8116035,31.1825294,30.0995903,30.8858166,30.3672123,30.5541973z"/>
		</g>
		<g>
		</g>
	</g>
</g>
</svg>
