<?xml version="1.0" encoding="utf-8"?>
<!-- Generator: Adobe Illustrator 21.1.0, SVG Export Plug-In . SVG Version: 6.00 Build 0)  -->
<svg version="1.1" id="Layer_1" xmlns="http://www.w3.org/2000/svg" xmlns:xlink="http://www.w3.org/1999/xlink" x="0px" y="0px"
	 viewBox="0 0 91.375 89" style="enable-background:new 0 0 91.375 89;" xml:space="preserve">
<style type="text/css">
	.st0{fill:#451807;}
</style>
<g>
	<path class="st0" d="M45.68653,9.83721c11.43171,0,12.78575,0.0436,17.30028,0.24957
		c4.17424,0.19048,6.44124,0.88789,7.94988,1.4742c1.99839,0.77663,3.42461,1.70449,4.92273,3.2026
		c1.49818,1.49818,2.42603,2.9244,3.20267,4.9228c0.5863,1.50863,1.28372,3.77564,1.4742,7.94982
		c0.20597,4.51459,0.24957,5.86864,0.24957,17.30034s-0.0436,12.78575-0.24957,17.30028
		c-0.19048,4.17424-0.8879,6.44124-1.4742,7.94988c-0.77663,1.99839-1.70448,3.42461-3.20261,4.92273
		c-1.49818,1.49818-2.9244,2.42603-4.92279,3.20267c-1.50864,0.5863-3.77564,1.28372-7.94988,1.4742
		c-4.51388,0.20597-5.8678,0.24957-17.30028,0.24957s-12.7864-0.0436-17.30028-0.24957
		c-4.17424-0.19048-6.44124-0.8879-7.94988-1.4742c-1.9984-0.77663-3.42462-1.70448-4.92273-3.20261
		c-1.49815-1.49815-2.42604-2.9244-3.20267-4.92279c-0.58631-1.50864-1.28372-3.77564-1.4742-7.94983
		c-0.20597-4.51459-0.24957-5.86863-0.24957-17.30034s0.0436-12.78575,0.24957-17.30028
		c0.19048-4.17424,0.88789-6.44124,1.4742-7.94988c0.77663-1.9984,1.70449-3.42462,3.2026-4.92273
		c1.49818-1.49818,2.9244-2.42604,4.9228-3.20267c1.50863-0.58631,3.77564-1.28372,7.94982-1.4742
		C32.90078,9.88081,34.25483,9.83721,45.68653,9.83721 M45.68653,2.12307c-11.62746,0-13.08543,0.04925-17.65193,0.25759
		C23.47753,2.5886,20.3654,3.31234,17.64203,4.37072c-2.81532,1.09411-5.20297,2.55801-7.58315,4.93816
		c-2.38015,2.38018-3.84405,4.76783-4.93816,7.58315c-1.05838,2.72337-1.78212,5.8355-1.99006,10.39258
		c-0.20834,4.56649-0.25759,6.02444-0.25759,17.65193c0,11.62746,0.04925,13.08543,0.25759,17.65192
		c0.20794,4.55708,0.93168,7.66921,1.99006,10.39258c1.09411,2.81529,2.55801,5.20297,4.93816,7.58315
		c2.38018,2.38016,4.76783,3.84406,7.58315,4.93816c2.72337,1.05839,5.8355,1.78213,10.39258,1.99007
		C32.6011,87.70079,34.05908,87.75,45.68653,87.75s13.08543-0.04921,17.65192-0.25759
		c4.55708-0.20794,7.66921-0.93168,10.39258-1.99007c2.81532-1.0941,5.20297-2.558,7.58315-4.93816
		c2.38016-2.38018,3.84406-4.76783,4.93816-7.58315c1.05839-2.72337,1.78213-5.83549,1.99007-10.39258
		C88.45075,58.02196,88.5,56.564,88.5,44.93653s-0.04925-13.08543-0.25759-17.65193
		c-0.20794-4.55708-0.93168-7.66921-1.99007-10.39258c-1.0941-2.81532-2.558-5.20297-4.93816-7.58315
		c-2.38018-2.38015-4.76783-3.84405-7.58315-4.93816c-2.72337-1.05838-5.83549-1.78212-10.39258-1.99006
		C58.77196,2.17231,57.314,2.12307,45.68653,2.12307L45.68653,2.12307z"/>
	<path class="st0" d="M45.68653,22.95124c-12.14214,0-21.98529,9.84314-21.98529,21.98529s9.84315,21.98529,21.98529,21.98529
		s21.98529-9.84315,21.98529-21.98529S57.82867,22.95124,45.68653,22.95124z M45.68653,59.20768
		c-7.88174,0-14.27116-6.38941-14.27116-14.27114s6.38942-14.27116,14.27116-14.27116s14.27116,6.38941,14.27116,14.27116
		S53.56828,59.20768,45.68653,59.20768z"/>
	<circle class="st0" cx="68.54047" cy="22.0826" r="5.13762"/>
</g>
</svg>
