<?xml version="1.0" encoding="utf-8"?>
<!-- Generator: Adobe Illustrator 21.1.0, SVG Export Plug-In . SVG Version: 6.00 Build 0)  -->
<svg version="1.1" id="Ebene_1" xmlns="http://www.w3.org/2000/svg" xmlns:xlink="http://www.w3.org/1999/xlink" x="0px" y="0px"
	 viewBox="0 0 226 64" style="enable-background:new 0 0 226 64;" xml:space="preserve">
<style type="text/css">
	.st0{fill:#551805;}
	.st1{fill:#FFFFFF;}
	.st2{fill:#090D0D;}
	.st3{fill:#FFFFFF;stroke:#FFFFFF;stroke-width:0.5;stroke-miterlimit:10;}
</style>
<rect class="st0" width="226" height="64"/>
<g>
	<g id="XMLID_3_">
		<g>
			<path class="st1" d="M76.8507767,18.0707912c0.2996445,0.1105328,0.5007248,0.4085732,0.4908676,0.7283268
				c-0.0078812,0.3276463-0.2365646,0.6197662-0.5519791,0.7066135c-0.3035889,0.0828991-0.6367569-0.0355282-0.8181229-0.2940941
				H62.6234016c-0.0019722,0-0.0039406,0-0.0059128,0c-0.2188225,0.0098686-0.4317322,0.03158-0.6426659,0.0947418
				c-0.2286797,0.0710564-0.4317322,0.1756668-0.6347809,0.3019886c-0.3863907,0.2467232-0.6623802,0.6434517-0.8319206,1.0618935
				c-0.1044807,0.2585659-0.1399651,0.5289745-0.1517944,0.8053036c0.2917633-0.3098831,0.6466103-0.5546322,1.0389137-0.7204304
				c0.3942719-0.1657982,0.7964325-0.2348804,1.2222481-0.2526436h11.1993523
				c0.1951599-0.2743549,0.5578918-0.3888359,0.8733139-0.2723827c0.2996445,0.1105328,0.5007248,0.406599,0.494812,0.7263527
				c-0.0078812,0.3276482-0.2345886,0.6217403-0.5519791,0.7085876c-0.3035965,0.0848713-0.6347809-0.0335541-0.8161469-0.2901459
				H62.6234016c-0.2168503,0.0098686-0.4337006,0.0217113-0.6406937,0.0888195
				c-0.2286797,0.0750046-0.4317322,0.1697445-0.6328087,0.3019886c-0.3785057,0.2486973-0.6604118,0.6158199-0.8299484,1.0342617
				c-0.1084251,0.2704086-0.1517944,0.5447636-0.1636238,0.8349094c0.5914116-0.6276627,1.4075584-0.9513626,2.2611618-0.9691257
				h9.0623817c0.4021606-0.4421272,1.157196-0.2408028,1.2892761,0.3414631
				c0.0098572,0.0118427,0.0197144,0.0236855,0.0295715,0.0335541c0.3173904,0.3769932,0.6091537,0.7579327,0.8812027,1.1665058
				c0.2602234,0.3868599,0.4672165,0.8072758,0.6682968,1.2276917c0.3962402,0.8270149,0.6446381,1.7132416,0.8457184,2.6034184
				c0.2010803,0.892149,0.2602158,1.8139038,0.2740173,2.7238178v12.0992813
				c-0.0138016,0.3750191-0.0650558,0.7243767-0.1912231,1.0796585c-0.1123657,0.3158035-0.2897873,0.6434517-0.510582,0.8980713
				c-0.2996521,0.3454094-0.6544952,0.6572685-1.0763702,0.8467522c-0.2069931,0.0927658-0.4297562,0.1914558-0.6525192,0.2289581
				c-0.2326279,0.0414505-0.4593353,0.0690804-0.6959,0.078949h-13.052433V21.4775391
				c0.0275993-0.7085876,0.2267075-1.4329662,0.7018051-1.9777298c0.3035927-0.3473854,0.6544952-0.6572685,1.0783386-0.8487263
				c0.2129097-0.0947399,0.4277878-0.1835613,0.6564674-0.2289581c0.2306519-0.0453968,0.4553871-0.0690823,0.6919518-0.0769768
				h13.3540535C76.1667099,18.0668449,76.5333862,17.9543381,76.8507767,18.0707912z M74.8025208,42.8555679V30.762207
				c-0.0177383-0.9296513-0.1044769-1.8415375-0.3035889-2.7534256c-0.1931915-0.8842545-0.4928436-1.7467957-0.9009171-2.5560474
				c-0.2878189-0.5723953-0.6347809-1.0993958-1.0349655-1.5987625c-0.3627319,0.1756668-0.8003769,0.0335541-0.9916-0.3217258
				h-8.9480476c-0.2207947,0.0098686-0.4356728,0.03158-0.6485786,0.0947418
				c-0.2286797,0.0710564-0.4317322,0.1756668-0.6347809,0.3019886c-0.3863907,0.2447491-0.6623802,0.6434517-0.8319206,1.0618935
				c-0.1064529,0.26054-0.1399651,0.5329208-0.1517944,0.811224v5.6094875
				c0.2917633-0.3098831,0.6466103-0.5546322,1.0389137-0.7204304c0.3942719-0.1657982,0.7964325-0.2348804,1.2222481-0.2526436
				h1.3168755c0.2188187-0.2565918,0.5933838-0.3335686,0.8969727-0.1875095
				c0.2878189,0.1361904,0.4593277,0.4519958,0.421875,0.7678013c-0.0394287,0.3276482-0.2937393,0.5960827-0.6170425,0.6552963
				c-0.3095016,0.0552654-0.6288681-0.0947418-0.7846031-0.3690987h-1.2301369
				c-0.2168503,0.0098686-0.4396133,0.0256596-0.6466064,0.0927677c-0.2326241,0.0750046-0.4356728,0.1736927-0.6387253,0.3059368
				c-0.3666763,0.242775-0.6485786,0.6059494-0.8122025,1.0125504c-0.0985718,0.2408028-0.157711,0.4914703-0.1675682,0.7520103
				v7.3404922c0.4100456,0,0.7530632,0.343441,0.7530632,0.7539864s-0.3430176,0.7539825-0.7530632,0.7539825v2.8086929h12.1850319
				c0.4691925-0.0217133,0.8772659-0.1460609,1.2754822-0.3967323c0.3804703-0.2388268,0.660408-0.6335831,0.8279724-1.0441284
				c0.1064529-0.2644882,0.1458817-0.5388412,0.1577072-0.8230667
				C74.8025208,42.8595123,74.8025208,42.8575401,74.8025208,42.8555679z"/>
			<path class="st1" d="M58.6254654,45.5201721c0,0.1421127,0,0.2842255,0,0.4263382
				c0,0.078949-0.0611115,0.0473671-0.1360245,0.0473671c-0.7609482,0-1.5238686,0-2.2848167,0c-1.3050461,0-2.610096,0-3.9151421,0
				c-1.328701,0-2.6554337,0-3.9841385,0c-0.8319168,0-1.6638336,0-2.4957504,0c-0.0788574,0-0.1557388,0-0.2345963,0
				c-0.7195473-0.0296059-1.4174118-0.2348785-1.9753113-0.7066116c-0.3509026-0.2980423-0.6564674-0.6533203-0.8457184-1.0757103
				c-0.0946236-0.2131691-0.1853065-0.4283104-0.230648-0.6572685c-0.0453415-0.2329063-0.067028-0.4579201-0.0768852-0.6927986
				V30.762207c0.0019722-0.1559277,0.0059166-0.3118572,0.007885-0.4677868
				c0.0138016-0.9059658,0.1537666-1.8237743,0.3686485-2.7001324c0.2247353-0.909914,0.5440979-1.786272,0.9699135-2.6211815
				c0.1991081-0.39081,0.4238434-0.7776699,0.6860352-1.1309776c0.2858505-0.3868599,0.5894394-0.7441158,0.9186592-1.0934753
				c-0.6268959-0.6276627-1.2537918-1.2553234-1.8806877-1.8829861c-0.8003769-0.8013554-1.60075-1.6027107-2.4011269-2.4040661
				c-0.0394287-0.0394764-0.0788536-0.0769787-0.1163101-0.1164532c0.4731293,0,0.9462547,0,1.419384,0
				c1.1394539,0,2.278904,0,3.418354,0c1.3839035,0,2.7697754,0,4.1536789,0c1.2084465,0,2.418869,0,3.6273193,0
				c0.6111221,0,1.2242203,0,1.8373146,0c0.0138016,0,0.0275993,0,0.0433693,0
				c0.3725891,0.0138168,0.7234955,0.0671082,1.0783424,0.1934299c0.3154182,0.1105328,0.6426659,0.2881718,0.8950005,0.5092354
				c0.346962,0.3039627,0.6564674,0.6533222,0.8476906,1.0796585c0.1951637,0.438179,0.2878189,0.8704376,0.3055611,1.3500671
				c0,0.2980404,0,0.5941086,0,0.892149c0,0.795435,0,1.590868,0,2.3843288c0,1.1447926,0,2.2876129,0,3.4324055
				c0,1.3441448,0,2.6882896,0,4.0344105c0,1.2059784,0,2.4099846,0,3.617939l-1.9634857-1.9678574
				c-0.2247353,0.517128-0.494812,1.0007057-0.826004,1.4566498c-0.5322685,0.7322731-1.2025337,1.3165131-1.9831963,1.7685089
				c-0.7727776,0.4440994-1.7012939,0.6533203-2.5884094,0.6296349c-0.4514427-0.0118408-0.8989449-0.0828972-1.3306732-0.2151413
				c-0.4179306-0.1263237-0.849659-0.3039627-1.2183075-0.5467377c-0.7412338-0.4875259-1.4371262-1.0954475-1.9141998-1.8533821
				c-0.4849548-0.7717476-0.8733177-1.5987625-1.0704536-2.4948578c-0.1951637-0.8901768-0.2700768-1.8099594-0.165596-2.7178974
				c0.1044846-0.9020195,0.339077-1.786274,0.7372932-2.6053925c0.4001884-0.8250408,0.9009171-1.5000744,1.5810394-2.109972
				l-0.6190109-0.6059513c-0.6406937,0.5921345-1.1138229,1.2000599-1.5416107,1.9619389
				c-0.4100456,0.730299-0.6978645,1.5296803-0.8693733,2.3488007c-0.1833382,0.8605671-0.2345924,1.7408752-0.165596,2.6172333
				c0.0690002,0.860569,0.2621918,1.7112694,0.5756416,2.5145988c0.3173904,0.8092499,0.7688332,1.5296783,1.3011017,2.2106361
				c0.2700806,0.3454094,0.6052132,0.6552925,0.9442863,0.9316216c0.3371048,0.2763329,0.7057495,0.536869,1.0960808,0.7342491
				c0.7964363,0.3987045,1.6283531,0.6395035,2.519413,0.6947708c0.8693733,0.0532913,1.750576-0.1282959,2.5548935-0.4559441
				c0.1774216-0.0730286,0.346962-0.1638222,0.5224113-0.242775l4.4237556,4.4252167c0,0.3967323,0,0.7954369,0,1.1921654
				C58.6254654,44.1780014,58.6254654,44.8490868,58.6254654,45.5201721z M55.7452927,32.9570541l-1.4528999-1.4527054
				c-0.181366,0.2250118-0.3765297,0.4263363-0.6643486,0.5072632c-0.2819061,0.080925-0.5795822,0.0473709-0.833889-0.1105328
				c-0.3686485-0.2309322-0.6347809-0.6868763-0.7018089-1.1132126c-0.0335121-0.2190895-0.0709686-0.4559441-0.0354843-0.6770077
				c0.0354843-0.2368526,0.090683-0.4500217,0.1754532-0.6730595l-2.7618904-2.7040806
				c-0.1892509,0.4125214-0.346962,0.7895126-0.4494705,1.233614c-0.1064568,0.4598904-0.1793976,0.9217548-0.1991119,1.3974361
				c-0.0197105,0.4677868,0.0098572,0.9276791,0.0729408,1.3934898c0.0630836,0.4618664,0.1931953,0.9039936,0.3410492,1.3441467
				c0.1379967,0.3987045,0.3528748,0.8112221,0.5973244,1.1566353c0.1340523,0.1894836,0.2681046,0.3947563,0.4317284,0.5585785
				c0.1715088,0.1717224,0.3430214,0.3296242,0.5303001,0.4855537c0.346962,0.2901459,0.7865753,0.4618645,1.2123909,0.5921326
				c0.1892509,0.0572395,0.4494743,0.0868454,0.6466103,0.0789528c0.2188225-0.0098686,0.4435577-0.0118446,0.6564674-0.0671082
				c0.4396133-0.1144829,0.8733139-0.2842255,1.2321053-0.5723991c0.1793938-0.1440849,0.3725891-0.2881699,0.5243835-0.4638367
				c0.1636238-0.1875114,0.3154182-0.3750191,0.4632721-0.5743713
				C55.6092682,33.1899567,55.674324,33.0695572,55.7452927,32.9570541z"/>
			<path class="st2" d="M58.6254654,40.3251801c0,0.6651611,0,1.3283539,0,1.9915428l-4.4237556-4.4252167
				c-0.1754494,0.0789528-0.3449898,0.1697464-0.5224113,0.242775c-0.8043175,0.3276482-1.6855202,0.5092354-2.5548935,0.4559441
				c-0.8910599-0.0552673-1.7229767-0.2960663-2.519413-0.6947708c-0.3903313-0.1973801-0.758976-0.4579163-1.0960808-0.7342491
				c-0.3390732-0.276329-0.6742058-0.5862122-0.9442863-0.9316216c-0.5322685-0.6809578-0.9837112-1.4013863-1.3011017-2.2106361
				c-0.3134499-0.8033295-0.5066414-1.6540298-0.5756416-2.5145988c-0.0689964-0.876358-0.0177422-1.7566662,0.165596-2.6172333
				c0.1715088-0.8191204,0.4593277-1.6185017,0.8693733-2.3488007c0.4277878-0.761879,0.9009171-1.3698044,1.5416107-1.9619389
				l0.6190109,0.6059513c-0.6801224,0.6098976-1.180851,1.2849312-1.5810394,2.109972
				c-0.3982162,0.8191185-0.6328087,1.703373-0.7372932,2.6053925c-0.1044807,0.907938-0.0295677,1.8277206,0.165596,2.7178974
				c0.1971359,0.8960953,0.5854988,1.7231102,1.0704536,2.4948578c0.4770737,0.7579346,1.172966,1.3658562,1.9141998,1.8533821
				c0.3686485,0.242775,0.8003769,0.420414,1.2183075,0.5467377c0.4317284,0.1322441,0.8792305,0.2033005,1.3306732,0.2151413
				c0.8871155,0.0236855,1.8156319-0.1855354,2.5884094-0.6296349c0.7806625-0.4519958,1.4509277-1.0362358,1.9831963-1.7685089
				c0.331192-0.4559441,0.6012688-0.9395218,0.826004-1.4566498l1.9634857,1.9678574c0,0.1914597,0,0.3848877,0,0.5763474
				C58.6254654,37.7178116,58.6254654,39.0224838,58.6254654,40.3251801z"/>
			<path class="st2" d="M54.2923927,31.5043488l1.4528999,1.4527054c-0.0709686,0.1125031-0.1360245,0.2329025-0.2148781,0.339489
				c-0.1478539,0.1993523-0.2996483,0.3868599-0.4632721,0.5743713c-0.1517944,0.1756668-0.3449898,0.3197517-0.5243835,0.4638367
				c-0.3587914,0.2881737-0.7924919,0.4579163-1.2321053,0.5723991c-0.2129097,0.0552635-0.437645,0.0572395-0.6564674,0.0671082
				c-0.1971359,0.0078926-0.4573593-0.0217133-0.6466103-0.0789528c-0.4258156-0.1302681-0.8654289-0.3019867-1.2123909-0.5921326
				c-0.1872787-0.1559296-0.3587914-0.3138313-0.5303001-0.4855537c-0.1636238-0.1638222-0.2976761-0.3690948-0.4317284-0.5585785
				c-0.2444496-0.3454132-0.4593277-0.7579308-0.5973244-1.1566353c-0.1478539-0.4401531-0.2779655-0.8822803-0.3410492-1.3441467
				c-0.0630836-0.4658108-0.0926514-0.925703-0.0729408-1.3934898c0.0197144-0.4756813,0.0926552-0.9375458,0.1991119-1.3974361
				c0.1025085-0.4441013,0.2602196-0.8210926,0.4494705-1.233614l2.7618904,2.7040806
				c-0.0847702,0.2230377-0.1399689,0.4362068-0.1754532,0.6730595c-0.0354843,0.2210636,0.0019722,0.4579182,0.0354843,0.6770077
				c0.067028,0.4263363,0.3331604,0.8822803,0.7018089,1.1132126c0.2543068,0.1579037,0.5519829,0.1914577,0.833889,0.1105328
				C53.915863,31.930685,54.1110268,31.7293606,54.2923927,31.5043488z"/>
		</g>
	</g>
	<g id="INSERT_71_">
		<g id="INSERT_75_">
			<g id="POLYLINE_49_">
				<path class="st3" d="M98.4848328,36.6845818c-0.1912231,0-0.382431,0-0.5735855,0c-0.0956116,0-0.5034714,0.063633-0.5720749,0
					c-0.0470581-0.0446854-0.0007935-0.3904915-0.0007935-0.4537315c0-0.2424622,0-0.4853134,0-0.7281685
					c0-0.5104179,0-1.02005,0-1.530468c0-2.0489426,0-4.09828,0-6.1473007c0-0.7516937-0.031662-1.4625702-0.4857788-2.0948124
					c-0.3785782-0.5284996-0.9406357-0.8245659-1.5858994-0.8619881c-0.7988281-0.0454769-1.6098938-0.00387-2.4094315-0.00387
					c-1.0022812,0-2.0046539,0-3.0069351,0c-0.9136276,0-1.8265381-0.0041828-2.7401657,0
					c-0.3222656,0.0015793-0.6383972,0.0405025-0.9383316,0.1669827c-0.5766602,0.243248-0.9992065,0.7752209-1.1988754,1.360014
					c-0.1102905,0.3203831-0.148819,0.6549778-0.1519012,0.9923363c-0.0054474,0.9537315,0,1.9070683,0,2.8604031
					c0,2.0281773,0,4.0562763,0,6.0847683c0,0.0636368,0.0339508,0.3184891-0.0092392,0.355835
					c-0.0324402,0.0281868-0.2128525,0-0.2544556,0c-0.2513809,0-0.5112076,0.017765-0.7625046,0
					c-0.0716934-0.0049744-0.1187515,0.0308685-0.1187515-0.0485535c0-0.199276,0-0.3986282,0-0.5982933
					c0-0.4853935,0-0.9710999,0-1.45681c0-2.0501251,0-4.1002502,0-6.1510868c0-1.1156597-0.0979004-2.2432404,0.5697937-3.207077
					c0.5188675-0.7497997,1.2983475-1.3237762,2.208107-1.4718094c0.6477127-0.1064262,1.3261414-0.0501328,1.9776535-0.0501328
					c0.9969101,0,1.9954071,0,2.9923248,0c0.98452,0,1.9699097,0,2.9545135,0c0.5427856,0,1.0886536-0.029686,1.6183395,0.1133728
					c0.8796768,0.2370911,1.6376038,0.8712273,2.0770493,1.664608c0.6006622,1.0839996,0.4109421,2.417881,0.4109421,3.6052284
					c0,2.0354404,0,4.0708828,0,6.1063213C98.4848328,35.6884537,98.4848328,36.1869507,98.4848328,36.6845818"/>
			</g>
		</g>
		<path class="st3" d="M116.54879,27.1738033c-0.0030823-0.9267292-0.3269424-1.7864285-0.97686-2.4537258
			c-0.6422729-0.6599522-1.4819107-1.0123119-2.4009018-1.0192585c-1.8959427-0.0146065-3.7933807,0-5.6893158,0
			c-0.832695,0-1.6753387-0.0362396-2.5080414,0.0026836c-0.4456787,0.0208435-0.8843307,0.1172428-1.2876129,0.3130417
			c-0.8087769,0.3920708-1.4756775,1.1303444-1.7625046,1.9853859c-0.1465378,0.4324951-0.1804047,0.8731213-0.1804047,1.3268547
			c0,0.9302807,0,1.8604851,0,2.7906876c0,0.9522305,0,1.9047775,0,2.8569298c0,0.4626541,0.0207596,0.9117279,0.1619263,1.3562241
			c0.2752228,0.8585129,0.9298096,1.6060257,1.7324295,2.0112c0.3970413,0.2012482,0.8349838,0.3110695,1.2790833,0.3357811
			c0.8111496,0.0435829,1.6322403,0.0049744,2.4440918,0.0049744c1.9190674,0,3.8388443,0.0073433,5.7587051,0
			c0.9197769-0.0030785,1.7563477-0.326149,2.4109344-0.9795494c0.6591644-0.6588478,1.0176773-1.5227318,1.0184708-2.4545135
			c0-0.1885338,0-0.3769913,0-0.5655251C116.54879,30.8477192,116.5557327,29.0107613,116.54879,27.1738033z
			 M115.4061356,33.2505188c-0.0007172,0.1634293-0.0154037,0.326149-0.0493546,0.4868927
			c-0.1380081,0.6534805-0.5836029,1.2159271-1.1618423,1.5389175c-0.3045959,0.1692696-0.6545868,0.2397728-1,0.2460098
			c-0.8705139,0.0157928-1.7409515,0-2.6114655,0c-1.8380661,0-3.683075,0.0500565-5.5203476-0.0003929
			c-0.7309341-0.0204468-1.3701248-0.4129143-1.7849274-1.004261c-0.5697861-0.8142204-0.389389-1.9190636-0.389389-2.8496628
			c0-0.99226,0-1.9845181,0-2.9764614c0-0.6075287-0.0592957-1.2444286,0.0177689-1.848484
			c0.0817108-0.6372147,0.443306-1.203928,0.9606705-1.5790253c0.3222885-0.2336159,0.7008514-0.3681488,1.0978928-0.3947544
			c0.7648849-0.0509243,1.5466614-0.0050545,2.3138275-0.0050545c1.93367,0,3.8673477-0.0037899,5.8010941,0
			c0.7092972,0.0007896,1.3330154,0.2575397,1.7940903,0.8080654c0.5389175,0.6425838,0.5319824,1.3554344,0.5319824,2.1522903
			C115.4061356,29.6329746,115.4061356,31.4417477,115.4061356,33.2505188z"/>
		<g id="INSERT_74_">
			<g id="POLYLINE_48_">
				<path class="st3" d="M134.6729126,36.6845818c-2.0439758,0-4.0879364,0-6.1326141,0c-1.0832977,0-2.1657944,0-3.2490845,0
					c-0.7971725,0-1.6198425,0.0617409-2.4140167-0.0176849c-0.9182816-0.0917435-1.737793-0.5886612-2.3030014-1.311142
					c-0.6452713-0.8249626-0.7070084-1.739769-0.7070084-2.7475052c0-1.8237705-0.0146103-3.6476231,0-5.4713955
					c0.0077362-0.9356518,0.3539352-1.8099575,1.0269928-2.467226c0.6692734-0.652689,1.5019684-0.9688091,2.4309921-0.9688091
					c2.127182,0,4.2559433,0,6.3832016,0c1.0778351,0,2.1556854,0,3.2328186,0c0.4857025,0,0.9699097,0,1.4557037,0
					c0.0878754,0,0.2373962-0.029686,0.2760162,0.0308685c0.0338593,0.0520287,0,0.2378025,0,0.2995415
					c0,0.2297478,0,0.4594955,0,0.6892433c0,0.0513191,0.02771,0.1437702-0.031662,0.1437702c-0.2082062,0-0.4155121,0-0.6229248,0
					c-1.0355225,0-2.0709686,0-3.1064148,0c-2.2020264,0-4.4032745,0-6.605217,0
					c-0.9367523,0-1.8281097-0.0878716-2.5574722,0.6002674c-0.4710999,0.4444942-0.7285614,1.0239182-0.7370834,1.6723442
					c-0.0231323,1.8210888,0,3.6453342,0,5.4676075c0,0.7821693,0.0023651,1.4826241,0.5374146,2.1083145
					c0.4934464,0.5762634,1.1349258,0.8095627,1.8796768,0.8095627c2.1342087,0,4.2691269,0,6.4024658,0
					c1.0802155,0,2.1596375,0,3.238266,0c0.4849091,0,0.9707031,0,1.4556274,0c0.1326294,0,0.1148682-0.0247116,0.1473236,0.0639534
					c0.0323639,0.0867653,0,0.2486954,0,0.3415413C134.6729126,36.1804008,134.6729126,36.4324913,134.6729126,36.6845818"/>
			</g>
		</g>
		<g id="INSERT_73_">
			<g id="POLYLINE_47_">
				<path class="st3" d="M149.0283051,36.6845818c-1.6414948,0-3.2814636,0-4.9221497,0
					c-0.9414215,0-1.8049011-0.2644081-2.4695129-0.9572029c-0.6815948-0.7089043-1.0108185-1.6456604-1.0262146-2.6210251
					c-0.0285797-1.8897743,0-3.782156,0-5.672327c0-0.4938412,0-0.9887848,0-1.4830208c0-0.235117,0-0.4703121,0-0.7066135
					c0-0.0678177,0.0331573-0.3234615-0.014679-0.3604908c-0.0370331-0.0300007-0.2405701,0-0.292984,0
					c-0.1349335,0-0.2713623,0-0.4062958,0c-0.3330841,0-0.6669769,0-0.9999847,0c-0.2683563,0-0.535141,0-0.8019104,0
					c-0.0570068,0-0.1356354,0.016264-0.16185-0.0188694c-0.031662-0.0401058,0-0.2301426,0-0.2798824
					c0-0.2324314,0-0.4652576,0-0.6980858c0-0.0266056-0.016983-0.1492176,0.0022888-0.1673756
					c0.0285034-0.0262127,0.2227936,0,0.2659912,0c0.6183472,0,1.238266,0,1.8566132,0
					c0.1087189,0,0.5034637,0.0474491,0.5528107-0.0266075c0.0362396-0.0555019,0-0.2655926,0-0.3307266
					c0-0.1769295,0-0.3538589,0-0.5304737c0-0.828434,0-1.6564751,0-2.4838047c0-0.0397129-0.0254974-0.2451439,0-0.2694607
					c0.0231323-0.0219479,0.1734619,0,0.2027435,0c0.2544708,0,0.5088501,0,0.7640991,0c0.0254211,0,0.1611328-0.0188694,0.178833,0
					c0.0285645,0.0292912,0,0.2498016,0,0.292593c0,0.3824406,0,0.7648792,0,1.1473198c0,0.4494686,0,0.8985443,0,1.3476963
					c0,0.173851,0,0.3473072,0,0.5211582c0,0.0509224-0.0338745,0.2822495,0,0.3207779
					c0.0378113,0.0431862,0.2775879,0.011528,0.3408203,0.011528c0.2266693,0,0.4541321,0,0.6815948,0
					c0.5072479,0,1.0138092,0,1.5211487,0c0.9437103,0,1.8881989,0,2.8326874,0c0.4880676,0,0.9776459,0,1.4657288,0
					c0.057785,0,0.3878021-0.0435028,0.4302216,0c0.0192413,0.0212364,0,0.1627178,0,0.1905079c0,0.2389851,0,0.4787598,0,0.7173519
					c0,0.0393162,0.0261993,0.2190094,0,0.2490902c-0.0354614,0.0397129-0.2860565,0.0072632-0.3439331,0.0072632
					c-1.9521484,0-3.9035797,0-5.8558044,0c-0.2336121,0-0.4672394,0-0.6992798,0
					c-0.0732574,0-0.3353729-0.0338688-0.3731842,0.017765c-0.061676,0.0851879,0,0.4537315,0,0.5551052
					c0,0.2266693,0,0.4541283,0,0.6815853c0,1.0146809,0,2.0300732,0,3.0454655c0,1.0212326,0,2.0427818,0,3.0640182
					c0,0.4999962-0.0469818,1.0239182,0.0547791,1.5177574c0.1287689,0.6132927,0.5620575,1.1699753,1.1001892,1.4814377
					c0.3215637,0.1854591,0.6800842,0.2702522,1.0493469,0.2753029c0.7833405,0.011528,1.5666962,0,2.3508453,0
					c0.854248,0,1.7077942,0,2.5612488,0c0.0994873,0,0.1218414-0.0196571,0.1557922,0.0465813
					c0.0346375,0.0682945,0,0.2460136,0,0.3226738c0,0.2224846,0,0.4448929,0,0.6669807
					C149.0283051,36.6009712,149.0283051,36.6429749,149.0283051,36.6845818"/>
			</g>
		</g>
		<g id="INSERT_72_">
			<g id="POLYLINE_46_">
				<path class="st3" d="M167.1569824,33.2740479c0.0014954,0.9359665-0.3631744,1.8037987-1.0331573,2.4568024
					c-0.6669006,0.6496124-1.5050354,0.9529419-2.4279022,0.9537315c-1.9475708,0.0030785-3.8959198,0-5.8442078,0
					c-0.789505,0-1.5937042,0.045475-2.3832245-0.0088425c-0.4448853-0.0304756-0.8820343-0.1476402-1.2790833-0.3550453
					c-0.8011169-0.4194679-1.441803-1.1754227-1.6985626-2.0447578c-0.1519012-0.5103378-0.140274-1.0284958-0.140274-1.5558891
					c0-1.0342617,0-2.0693913,0-3.1040459c0-0.9741802,0-1.9479637,0-2.922142c0-0.5246315,0-1.0493412,0-1.5735779
					c0-0.2483006,0-0.4969177,0-0.745615c0-0.1646118-0.061676-0.4594955,0-0.6121864
					c0.0346375-0.0862942-0.0054626-0.049345,0.1056213-0.0616608c0.1202393-0.0131073,0.2490082,0,0.3685455,0
					c0.1256866,0,0.2498169,0,0.3746948,0c0.0501404,0,0.2336273-0.0307922,0.2752228,0
					c0.0478516,0.0354481,0.0192719,0.2251682,0.0192719,0.2964611c0,0.2436428,0,0.4876823,0,0.7313251
					c0,0.5003929,0,0.9999962,0,1.4995995c0,2.0470467,0,4.0948048,0,6.1426411
					c0,0.8026161-0.0161896,1.5689964,0.4626465,2.2536621c0.3692627,0.5269203,0.9182892,0.8311195,1.5551147,0.8897018
					c0.7516937,0.0678177,1.5335388,0.0081291,2.2875977,0.0081291c0.9976501,0,1.9953461,0,2.9937592,0
					c0.9538116,0,1.9059601,0,2.858902,0c0.3353882,0,0.6638947-0.0243149,0.9799347-0.1457405
					c0.5844879-0.2251701,1.0077515-0.7336159,1.2174377-1.3142242c0.1133728-0.3145409,0.1611328-0.64645,0.1657867-0.9795456
					c0.0108185-0.9032021,0-1.8075886,0-2.7112656c0-2.0473614,0-4.0959873,0-6.1433506c0-0.1758251,0-0.3515701,0-0.5273933
					c0.1927338,0,0.3855286,0,0.5774689,0c0.0863647,0,0.5042419-0.0604782,0.5644073,0
					c0.0555115,0.0547123,0,0.4533367,0,0.5258141c0,0.2428532,0,0.484602,0,0.7266674c0,0.5108147,0,1.0220222,0,1.5327587
					c0,2.0281773,0,4.0559597,0,6.0832691C167.1569824,32.8049202,167.1569824,33.0392456,167.1569824,33.2740479"/>
			</g>
		</g>
		<path class="st3" d="M185.052063,26.0226936c-0.2852478-0.8589096-0.9498596-1.6067352-1.7617188-2.002676
			c-0.4032745-0.1961937-0.8457947-0.2987518-1.2937622-0.3161201c-0.8404388-0.0327644-1.6869507-0.0030785-2.5273895-0.0030785
			c-1.8927765,0-3.7856293,0-5.6777039,0c0,0.162323,0,0.3249626,0,0.4876804c0,0.110611,0,0.2209053,0,0.3315163
			c0,0.0682144-0.0339508,0.249012,0,0.3079891c0.0663147,0.116848,0.7039337,0.0362377,0.8619995,0.0362377
			c0.9984894,0,1.9969025,0,2.9954071,0c1.0045624,0,2.0092163,0,3.0145874,0c0.5327606,0,1.1009827-0.0600815,1.6283722,0.041687
			c0.6383972,0.1237164,1.186554,0.5604744,1.5050507,1.1218185c0.3900909,0.6892433,0.2813721,1.5211525,0.2813721,2.281374
			c0,0.2914867,0,0.5832901,0,0.8750954c0,0.1002674,0.0077362,0.2043247,0,0.304987
			c-0.0115204,0.1425858-0.0115204,0.1114006-0.1665039,0.1114006c-0.9938354,0-1.9876709,0-2.9815063,0
			c-2.0462646,0-4.0909424,0-6.137207,0c-1.0809937,0-2.1133423-0.0382118-3.0185394,0.6468468
			c-0.7370911,0.5581856-1.2158508,1.3835411-1.3261414,2.3022194c-0.1148682,0.9549141,0.089447,1.9610672,0.6453552,2.7532654
			c0.5466461,0.7764053,1.3677521,1.2722168,2.3146057,1.3639603c0.7910156,0.0755577,1.6075439,0.0176849,2.4009094,0.0176849
			c1.0809326,0,2.1626282,0,3.2436218,0c2.0570068,0,4.1156616,0,6.1726532,0c0-0.0678177,0-0.1353226,0-0.2027473
			c0-1.9860954,0-3.9718781,0-5.9583683c0-1.0262089,0-2.052021,0-3.0786228
			C185.2255249,26.9587402,185.2070465,26.4880333,185.052063,26.0226936z M184.0782776,31.047781
			c0,0.1950092,0,0.3900986,0,0.5863705c0,0.4902878,0,0.9806519,0,1.4710197c0,0.8053818,0,1.6117897,0,2.4171677
			c-1.837265,0-3.675415,0-5.5134735,0c-1.0215454,0-2.0423889,0-3.0655212,0c-0.4895782,0-0.9799347,0-1.4710846,0
			c-0.2220154,0-0.4402466,0.0026855-0.6591797-0.0401039c-0.8049774-0.1561661-1.5042572-0.8269348-1.7239685-1.6141586
			c-0.1773224-0.6310577-0.0802155-1.373909,0.2289581-1.9490681c0.3083801-0.5740547,0.8311157-1.0007858,1.4787445-1.1179504
			c0.5836945-0.1060314,1.2128601-0.0386066,1.8003387-0.0386066c1.0216217,0,2.0431671,0,3.0640106,0
			c1.0076599,0,2.0161743,0,3.0231171,0c0.5104218,0,1.0208435,0,1.5304718,0c0.2467194,0,0.4934387,0,0.7408752,0
			c0.0871582,0,0.4911652-0.0612659,0.5597687,0C184.1044922,30.7929268,184.0782776,30.9964619,184.0782776,31.047781z"/>
	</g>
	<g id="INSERT_70_">
		<g>
			<path class="st3" d="M86.1679688,40.4343681c0.2097702,0.2143517,0.314621,0.523922,0.314621,0.9283104v1.919857
				c0,0.4043884-0.1048508,0.7139549-0.314621,0.9282265c-0.2104874,0.2147484-0.5172882,0.3226738-0.9213638,0.3226738h-1.3499832
				h-0.2266693c-0.0632401,0-0.0948181-0.0319748-0.0948181-0.0952148v-4.2320213
				c0-0.0624504,0.0315781-0.0941086,0.0948181-0.0941086h0.3593063h1.2173462
				C85.6506805,40.1120911,85.9574814,40.2196999,86.1679688,40.4343681z M85.9343491,41.3626785
				c0-0.2694626-0.0539246-0.4621811-0.1611404-0.5782394c-0.107132-0.1156654-0.282959-0.173851-0.5266037-0.173851h-1.1225204
				v3.4236412h1.1225204c0.2436447,0,0.4194717-0.0577927,0.5266037-0.1734581
				c0.1072159-0.1160583,0.1611404-0.3087769,0.1611404-0.5782356V41.3626785z"/>
			<path class="st3" d="M90.1232681,40.6105881v1.5034676h1.4502487c0.0640335,0,0.0948257,0.0315819,0.0948257,0.0948219v0.3095665
				c0,0.0632401-0.0307922,0.0948219-0.0948257,0.0948219h-1.4502487v1.4209633h1.9305878
				c0.0624619,0,0.0941162,0.0315781,0.0941162,0.0948181v0.3091736c0,0.0632401-0.0316544,0.0952148-0.0941162,0.0952148
				h-2.3855057c-0.0624542,0-0.0940323-0.0319748-0.0940323-0.0952148v-4.2320213
				c0-0.0624504,0.0315781-0.0941086,0.0940323-0.0941086h2.3539276c0.0624619,0,0.0940399,0.0316582,0.0940399,0.0941086v0.3099632
				c0,0.062767-0.0315781,0.0944252-0.0940399,0.0944252H90.1232681z"/>
			<path class="st3" d="M97.3429565,42.2088776c0.1958771,0.0840034,0.357811,0.2116661,0.486496,0.3820457
				c0.1280594,0.1707687,0.192009,0.3966484,0.192009,0.6788216c0,0.42136-0.107132,0.7425346-0.3222733,0.9637566
				c-0.213562,0.2205124-0.5288925,0.3311996-0.9459915,0.3311996h-0.4665298c-0.395462,0-0.7008438-0.1033478-0.9143982-0.3091736
				c-0.2150726-0.2062187-0.3330307-0.5054436-0.3538742-0.8970413c0-0.071373,0.0354538-0.1076126,0.107933-0.1076126h0.3269348
				c0.0763474,0,0.1140823,0.0362396,0.1140823,0.1076126c0.0123138,0.2482224,0.0755539,0.4282303,0.1889343,0.5400238
				c0.1140823,0.111084,0.2906189,0.1672974,0.5303879,0.1672974h0.4665298c0.2567444,0,0.4402313-0.0596848,0.5520248-0.1800079
				c0.1117935-0.1198463,0.1672974-0.3253555,0.1672974-0.6160545c0-0.1804047-0.0370331-0.3207016-0.1102982-0.4197845
				c-0.0739746-0.09869-0.1649246-0.1703758-0.2744293-0.2147484c-0.1095047-0.0442886-0.2690659-0.0913467-0.4795532-0.1425858
				l-0.2775955-0.0628433c-0.2775879-0.0632401-0.5057602-0.1369019-0.6846619-0.2209053
				c-0.1788254-0.0844002-0.3191986-0.2043266-0.4224701-0.360096c-0.1033478-0.1556931-0.1541901-0.3619919-0.1541901-0.6186638
				c0-0.7667732,0.4247589-1.1496086,1.2736435-1.1496086h0.3091736c0.3870926,0,0.6854553,0.1021652,0.892868,0.306488
				c0.2073975,0.2043266,0.3230591,0.498024,0.3446121,0.8808594v0.0127106c0,0.0632401-0.0370331,0.0948219-0.1079254,0.0948219
				h-0.327652c-0.067894,0-0.1056213-0.0358429-0.1141586-0.1075325c-0.0131073-0.2444344-0.0724792-0.4201775-0.1796188-0.5277901
				c-0.1072159-0.1071358-0.2768021-0.1611366-0.5081253-0.1611366h-0.3091736c-0.2644119,0-0.4517593,0.0443687-0.561264,0.1334267
				c-0.1095047,0.0878716-0.1634293,0.2606163-0.1634293,0.5177612c0,0.1642189,0.0246277,0.2891197,0.0755539,0.3758087
				c0.0500565,0.0859756,0.1225357,0.1496124,0.2174301,0.1889305c0.0940323,0.0401077,0.2381973,0.0832939,0.4317093,0.1294785
				l0.2775879,0.0632401C96.9065933,42.0508156,97.1471634,42.1244774,97.3429565,42.2088776z"/>
			<path class="st3" d="M101.1748581,40.1120911h0.3662491c0.0624542,0,0.0948257,0.0316582,0.0948257,0.0941086v4.2320213
				c0,0.0632401-0.0323715,0.0952148-0.0948257,0.0952148h-0.3662491c-0.0631638,0-0.0948257-0.0319748-0.0948257-0.0952148
				v-4.2320213C101.0800323,40.1437492,101.1116943,40.1120911,101.1748581,40.1120911z"/>
			<path class="st3" d="M107.783226,42.2057991c0.0192642,0.0188675,0.0277176,0.0450783,0.0277176,0.0790291v0.9660454
				c0,0.4213638-0.1079254,0.7456169-0.3245697,0.9729958c-0.2174301,0.2270622-0.5304718,0.3408318-0.9429169,0.3408318h-0.4857864
				c-0.4124374,0-0.7262726-0.1137695-0.9437027-0.3408318c-0.2158508-0.2273788-0.3237762-0.5516319-0.3237762-0.9729958
				v-1.8565369c0-0.4213638,0.1079254-0.7456169,0.3237762-0.9726791c0.2174301-0.227459,0.5312653-0.3411484,0.9437027-0.3411484
				h0.4857864c0.3947601,0,0.7000656,0.1036644,0.9144135,0.3126488c0.2142715,0.2085876,0.3323059,0.5123138,0.3530731,0.9121208
				c0,0.0720825-0.0354385,0.1075325-0.1063461,0.1075325h-0.3285217c-0.0755539,0-0.1132965-0.03545-0.1132965-0.1075325
				c-0.0123062-0.2563553-0.0763397-0.4418106-0.1896362-0.5555c-0.1133728-0.1137695-0.2899094-0.1708488-0.529686-0.1708488
				h-0.4857864c-0.2559509,0-0.4402313,0.0632401-0.5520172,0.1897202c-0.1110153,0.1264-0.1665192,0.3349876-0.1665192,0.6256866
				v1.8565369c0,0.290699,0.0555038,0.4992104,0.1665192,0.6252937c0.1117859,0.1260872,0.2960663,0.18964,0.5520172,0.18964
				h0.4857864c0.2566757,0,0.4409561-0.0635529,0.5520248-0.18964c0.1118011-0.1260834,0.1672974-0.3345947,0.1672974-0.6252937
				v-0.6001854h-0.5806046c-0.0331573,0-0.0600815-0.0093155-0.0786362-0.0281868
				c-0.0192642-0.0188675-0.0284958-0.0450821-0.0284958-0.0786362v-0.259037c0-0.0339508,0.0092316-0.0601616,0.0284958-0.0790291
				c0.0185547-0.0188713,0.0454788-0.0281868,0.0786362-0.0281868h1.0224228
				C107.7376709,42.1776123,107.764679,42.1869278,107.783226,42.2057991z"/>
			<path class="st3" d="M113.9181366,40.2061996v4.2320213c0,0.0632401-0.031662,0.0952148-0.0948257,0.0952148h-0.5551758
				c-0.0500641,0-0.0886688-0.0235252-0.1133041-0.069397l-1.640686-3.5500412v3.5242233
				c0,0.0632401-0.0316544,0.0952148-0.0941086,0.0952148h-0.3600159c-0.0632401,0-0.0948868-0.0319748-0.0948868-0.0952148
				v-4.2320213c0-0.0624504,0.0316467-0.0941086,0.0948868-0.0941086h0.5558929
				c0.0539246,0,0.0917435,0.0231323,0.1125107,0.0690041l1.6414719,3.5435638v-3.5184593
				c0-0.0624504,0.0308762-0.0941086,0.0933228-0.0941086h0.3600922
				C113.8864746,40.1120911,113.9181366,40.1437492,113.9181366,40.2061996z"/>
			<path class="st3" d="M117.7152939,40.6105881v1.5034676h1.4510422c0.0632401,0,0.094902,0.0315819,0.094902,0.0948219v0.3095665
				c0,0.0632401-0.031662,0.0948219-0.094902,0.0948219h-1.4510422v1.4209633h1.9306717
				c0.0631561,0,0.0948181,0.0315781,0.0948181,0.0948181v0.3091736c0,0.0632401-0.031662,0.0952148-0.0948181,0.0952148h-2.3848038
				c-0.0624466,0-0.0948181-0.0319748-0.0948181-0.0952148v-4.2320213c0-0.0624504,0.0323715-0.0941086,0.0948181-0.0941086
				h2.3531418c0.0632401,0,0.0948181,0.0316582,0.0948181,0.0941086v0.3099632c0,0.062767-0.0315781,0.0944252-0.0948181,0.0944252
				H117.7152939z"/>
			<path class="st3" d="M125.3930588,40.4343681c0.2096939,0.2143517,0.3145447,0.523922,0.3145447,0.9283104v1.919857
				c0,0.4043884-0.1048508,0.7139549-0.3145447,0.9282265c-0.2112732,0.2147484-0.518158,0.3226738-0.9213562,0.3226738h-1.3500671
				h-0.2274628c-0.0632401,0-0.0948181-0.0319748-0.0948181-0.0952148v-4.2320213
				c0-0.0624504,0.0315781-0.0941086,0.0948181-0.0941086h0.3593063h1.2182236
				C124.8749008,40.1120911,125.1817856,40.2196999,125.3930588,40.4343681z M125.1586533,41.3626785
				c0-0.2694626-0.053215-0.4621811-0.160347-0.5782394c-0.1072159-0.1156654-0.2829666-0.173851-0.5266037-0.173851h-1.1233978
				v3.4236412h1.1233978c0.2436371,0,0.4193878-0.0577927,0.5266037-0.1734581
				c0.107132-0.1160583,0.160347-0.3087769,0.160347-0.5782356V41.3626785z"/>
			<path class="st3" d="M133.790863,40.1120911h0.3661804c0.0632324,0,0.0948944,0.0316582,0.0948944,0.0941086v4.2320213
				c0,0.0632401-0.031662,0.0952148-0.0948944,0.0952148h-0.3661804c-0.0632477,0-0.0948181-0.0319748-0.0948181-0.0952148
				v-4.2320213C133.6960449,40.1437492,133.7276154,40.1120911,133.790863,40.1120911z"/>
			<path class="st3" d="M140.4530792,40.2061996v4.2320213c0,0.0632401-0.0323639,0.0952148-0.0948181,0.0952148h-0.5558929
				c-0.0500488,0-0.0878754-0.0235252-0.1125031-0.069397l-1.6407623-3.5500412v3.5242233
				c0,0.0632401-0.0307922,0.0952148-0.0940399,0.0952148h-0.3600922c-0.0631561,0-0.0948181-0.0319748-0.0948181-0.0952148
				v-4.2320213c0-0.0624504,0.031662-0.0941086,0.0948181-0.0941086h0.5551758c0.0547333,0,0.092453,0.0231323,0.11409,0.0690041
				l1.6398926,3.5435638v-3.5184593c0-0.0624504,0.0308685-0.0941086,0.0949097-0.0941086h0.3592224
				C140.4207153,40.1120911,140.4530792,40.1437492,140.4530792,40.2061996z"/>
			<path class="st3" d="M151.6088104,44.4640388c0,0.0458717-0.02771,0.069397-0.082489,0.069397h-0.3530884
				c-0.0547943,0-0.0948181-0.0362358-0.1203156-0.1079254l-0.2389832-0.8206978h-1.6661987l-0.2397766,0.8206978
				c-0.020752,0.0716896-0.0608673,0.1079254-0.1194458,0.1079254h-0.3539276c-0.0331573,0-0.0563049-0.010025-0.0686188-0.0288963
				c-0.0123138-0.0188675-0.0153961-0.0446854-0.0061646-0.0790291l1.2737274-4.2123642
				c0.0207672-0.0678978,0.0608673-0.1010551,0.1210327-0.1010551h0.4463806c0.0593719,0,0.0994873,0.0331573,0.1210327,0.1010551
				l1.2806702,4.2123642C151.6065216,44.4340363,151.6088104,44.4467468,151.6088104,44.4640388z M150.6751251,43.1244736
				l-0.6946716-2.34272l-0.693924,2.34272H150.6751251z"/>
			<path class="st3" d="M157.5571442,40.2196999v3.0311737c0,0.4260216-0.1071167,0.7509842-0.3214874,0.9757576
				c-0.2151337,0.2258797-0.5296783,0.3380699-0.9467773,0.3380699h-0.5366364c-0.4156036,0-0.73172-0.1121902-0.9460754-0.3380699
				c-0.2142639-0.2247734-0.3214874-0.549736-0.3214874-0.9757576v-3.0311737c0-0.0717659,0.0354614-0.1076088,0.1072235-0.1076088
				h0.3353882c0.0700989,0,0.1063385,0.0358429,0.1063385,0.1076088v3.0311737c0,0.2821732,0.0578766,0.4888687,0.1734619,0.6191368
				c0.1156616,0.1306648,0.2976379,0.195797,0.5451508,0.195797h0.5366364c0.2482147,0,0.4302063-0.0651321,0.5458679-0.195797
				c0.1156616-0.1302681,0.1734619-0.3369637,0.1734619-0.6191368v-3.0311737c0-0.0717659,0.0354462-0.1076088,0.107132-0.1076088
				h0.3285065C157.5186157,40.1120911,157.5571442,40.147934,157.5571442,40.2196999z"/>
			<path class="st3" d="M162.9719391,42.2088776c0.1965942,0.0840034,0.3577271,0.2116661,0.486496,0.3820457
				c0.1279755,0.1707687,0.1927948,0.3966484,0.1927948,0.6788216c0,0.42136-0.1080017,0.7425346-0.3222656,0.9637566
				c-0.2143555,0.2205124-0.5296936,0.3311996-0.9460754,0.3311996h-0.4664459
				c-0.3955536,0-0.7008514-0.1033478-0.9151917-0.3091736c-0.2143707-0.2062187-0.3315277-0.5054436-0.3530884-0.8970413
				c0-0.071373,0.0354614-0.1076126,0.1079254-0.1076126h0.3268585c0.076355,0,0.1141663,0.0362396,0.1141663,0.1076126
				c0.0123138,0.2482224,0.0755615,0.4282303,0.188858,0.5400238c0.1141663,0.111084,0.2906952,0.1672974,0.5304718,0.1672974
				h0.4664459c0.2567444,0,0.4410095-0.0596848,0.5520172-0.1800079c0.1118011-0.1198463,0.1672974-0.3253555,0.1672974-0.6160545
				c0-0.1804047-0.0369415-0.3207016-0.1102142-0.4197845c-0.0739746-0.09869-0.1650085-0.1703758-0.2745056-0.2147484
				c-0.109436-0.0442886-0.2698517-0.0913467-0.4803467-0.1425858l-0.2767181-0.0628433
				c-0.2775879-0.0632401-0.506546-0.1369019-0.6846619-0.2209053c-0.1789093-0.0844002-0.3191986-0.2043266-0.4225464-0.360096
				c-0.1032715-0.1556931-0.1541901-0.3619919-0.1541901-0.6186638c0-0.7667732,0.4240417-1.1496086,1.2737122-1.1496086h0.3091736
				c0.3870239,0,0.6846619,0.1021652,0.8927765,0.306488c0.2081909,0.2043266,0.3230743,0.498024,0.3439178,0.8808594v0.0127106
				c0,0.0632401-0.0362396,0.0948219-0.1071472,0.0948219h-0.327713c-0.0686188,0-0.1056366-0.0358429-0.11409-0.1075325
				c-0.0131073-0.2444344-0.0732727-0.4201775-0.1796875-0.5277901c-0.1071472-0.1071358-0.2767334-0.1611366-0.5080566-0.1611366
				h-0.3091736c-0.265274,0-0.4518433,0.0443687-0.5613403,0.1334267c-0.109436,0.0878716-0.1642151,0.2606163-0.1642151,0.5177612
				c0,0.1642189,0.0254974,0.2891197,0.0763397,0.3758087c0.0501404,0.0859756,0.1226044,0.1496124,0.2166443,0.1889305
				c0.0948944,0.0401077,0.2390594,0.0832939,0.4325714,0.1294785l0.2775269,0.0632401
				C162.5363617,42.0508156,162.7776489,42.1244774,162.9719391,42.2088776z"/>
			<path class="st3" d="M169.0953217,40.2061996v0.3099632c0,0.062767-0.0323639,0.0944252-0.0948334,0.0944252h-0.9962006
				v3.8276329c0,0.0632401-0.0323639,0.0952148-0.0948029,0.0952148h-0.3600159
				c-0.0624695,0-0.0941315-0.0319748-0.0941315-0.0952148v-3.8276329h-1.003067
				c-0.0639496,0-0.0948181-0.0316582-0.0948181-0.0944252v-0.3099632c0-0.0624504,0.0308685-0.0941086,0.0948181-0.0941086
				h1.4572144h1.0910034C169.0629578,40.1120911,169.0953217,40.1437492,169.0953217,40.2061996z"/>
			<path class="st3" d="M175.1577454,44.4571686c0,0.0215569-0.010025,0.0389252-0.0285797,0.0543213
				c-0.0192719,0.0146828-0.0431061,0.021946-0.072403,0.021946h-0.3531494c-0.0679016,0-0.1094971-0.02771-0.1256866-0.0825043
				l-0.637619-1.4402275c-0.0339355,0.0046577-0.0863647,0.0069504-0.1580505,0.0069504h-1.0786285v1.4205666
				c0,0.0632401-0.0308685,0.0952148-0.0948334,0.0952148h-0.3592987c-0.062439,0-0.0955963-0.0319748-0.0955963-0.0952148
				v-4.2320213c0-0.0624504,0.0331573-0.0941086,0.0955963-0.0941086h0.3592987h1.1734619
				c0.4078522,0,0.7178192,0.1076088,0.9298096,0.3222771c0.2128448,0.2143517,0.3199921,0.528183,0.3199921,0.941021v0.3785706
				c0,0.2737236-0.0493469,0.5065498-0.145752,0.6981659c-0.0963135,0.1912193-0.2397766,0.3338852-0.4286194,0.4260216
				l0.6869507,1.5284958C175.1530914,44.4320641,175.1577454,44.4486427,175.1577454,44.4571686z M173.7822571,42.5184441
				c0.2475281,0,0.427124-0.0578728,0.5366211-0.173851c0.1095123-0.1152687,0.1642303-0.312645,0.1642303-0.5906334v-0.3785706
				c0-0.2775154-0.054718-0.4748917-0.1642303-0.59095c-0.1094971-0.1156654-0.289093-0.173851-0.5366211-0.173851h-1.0786285
				v1.907856H173.7822571z"/>
			<path class="st3" d="M178.3119202,40.1120911h0.3654633c0.0639496,0,0.0956116,0.0316582,0.0956116,0.0941086v4.2320213
				c0,0.0632401-0.031662,0.0952148-0.0956116,0.0952148h-0.3654633c-0.0632324,0-0.0948181-0.0319748-0.0948181-0.0952148
				v-4.2320213C178.2171021,40.1437492,178.2486877,40.1120911,178.3119202,40.1120911z"/>
			<path class="st3" d="M185.0297241,44.4640388c0,0.0458717-0.0262146,0.069397-0.0817108,0.069397h-0.3539429
				c-0.0539246,0-0.0940247-0.0362358-0.1187439-0.1079254l-0.2404785-0.8206978h-1.6646118l-0.2398529,0.8206978
				c-0.0215607,0.0716896-0.0608673,0.1079254-0.1194611,0.1079254h-0.3539276c-0.0338745,0-0.0570068-0.010025-0.069397-0.0288963
				c-0.0123291-0.0188675-0.0153961-0.0446854-0.0061646-0.0790291l1.2745056-4.2123642
				c0.0208588-0.0678978,0.0608673-0.1010551,0.1195526-0.1010551h0.447876c0.0593719,0,0.0986938,0.0331573,0.1195221,0.1010551
				l1.2814636,4.2123642C185.0281372,44.4340363,185.0297241,44.4467468,185.0297241,44.4640388z M184.0960541,43.1244736
				l-0.6931915-2.34272l-0.6939087,2.34272H184.0960541z"/>
		</g>
	</g>
</g>
</svg>
