<?xml version="1.0" encoding="utf-8"?>
<!-- Generator: Adobe Illustrator 23.0.2, SVG Export Plug-In . SVG Version: 6.00 Build 0)  -->
<svg version="1.1"
	 id="Ebene_1" xmlns:cc="http://creativecommons.org/ns#" xmlns:dc="http://purl.org/dc/elements/1.1/" xmlns:inkscape="http://www.inkscape.org/namespaces/inkscape" xmlns:rdf="http://www.w3.org/1999/02/22-rdf-syntax-ns#" xmlns:sodipodi="http://sodipodi.sourceforge.net/DTD/sodipodi-0.dtd" xmlns:svg="http://www.w3.org/2000/svg"
	 xmlns="http://www.w3.org/2000/svg" xmlns:xlink="http://www.w3.org/1999/xlink" x="0px" y="0px" viewBox="0 0 70 59.1"
	 style="enable-background:new 0 0 70 59.1;" xml:space="preserve">
<style type="text/css">
	.st0{fill:#551805;}
</style>
<g>
	<path class="st0" d="M29,41.9c-4.1,0-7.4,3.3-7.4,7.4s3.3,7.4,7.4,7.4s7.4-3.3,7.4-7.4S33.1,41.9,29,41.9z M29,53.1
		c-2.1,0-3.7-1.7-3.7-3.7s1.7-3.7,3.7-3.7c2.1,0,3.7,1.7,3.7,3.7S31.1,53.1,29,53.1z"/>
	<path class="st0" d="M49.6,41.9c-4.1,0-7.4,3.3-7.4,7.4s3.3,7.4,7.4,7.4s7.4-3.3,7.4-7.4S53.7,41.9,49.6,41.9z M49.6,53.1
		c-2.1,0-3.7-1.7-3.7-3.7s1.7-3.7,3.7-3.7s3.7,1.7,3.7,3.7S51.7,53.1,49.6,53.1z"/>
	<path class="st0" d="M65.1,11.9h-47l-2.4-8.4c-0.2-0.8-1-1.4-1.8-1.3c0,0,0,0,0,0H4.2c-1,0-1.9,0.8-1.9,1.9s0.8,1.9,1.9,1.9h8.4
		l9.1,31.5c0.1,0.5,0.5,0.9,0.9,1.1c0.1,0,0.2,0.1,0.2,0.1c0,0,0,0,0.1,0c0.2,0.1,0.4,0.1,0.6,0.1H57c1,0,1.8-0.8,1.8-1.8
		s-0.8-1.8-1.8-1.8H24.8l-2.3-7.9h38.4c1,0,1.8-0.8,1.8-1.9s-0.8-1.9-1.8-1.9H21.4l-2.3-7.9h46c1,0,1.8-0.8,1.8-1.9
		S66.2,11.9,65.1,11.9z"/>
</g>
</svg>
