<?xml version="1.0" encoding="utf-8"?>
<!-- Generator: Adobe Illustrator 21.1.0, SVG Export Plug-In . SVG Version: 6.00 Build 0)  -->
<svg version="1.1" id="Layer_1" xmlns="http://www.w3.org/2000/svg" xmlns:xlink="http://www.w3.org/1999/xlink" x="0px" y="0px"
	 viewBox="0 0 109.33334 89" style="enable-background:new 0 0 109.33334 89;" xml:space="preserve">
<style type="text/css">
	.st0{fill:#451807;}
</style>
<path class="st0" d="M35.45591,87.01968c39.48714,0,61.08094-32.71388,61.08094-61.0809c0-0.92963-0.01888-1.85496-0.06136-2.77538
	c4.19133-3.03007,7.83516-6.81089,10.70962-11.11539c-3.84679,1.70859-7.98618,2.86035-12.32851,3.37947
	c4.43199-2.65727,7.83508-6.86271,9.43991-11.87535c-4.1489,2.45909-8.7414,4.24779-13.63124,5.21083
	c-3.9176-4.17258-9.49658-6.78264-15.67027-6.78264c-11.85656,0-21.47112,9.61453-21.47112,21.46627
	c0,1.68499,0.1888,3.32306,0.557,4.89482C36.23939,27.44459,20.41811,18.9015,9.83125,5.9121
	c-1.84554,3.17179-2.90752,6.8581-2.90752,10.78985c0,7.44813,3.79015,14.02304,9.55321,17.86953
	c-3.52111-0.10832-6.82976-1.07596-9.7231-2.68548c-0.00473,0.08957-0.00473,0.17947-0.00473,0.27365
	c0,10.39809,7.40091,19.07804,17.22312,21.04651c-1.80302,0.49062-3.70046,0.7551-5.65921,0.7551
	c-1.38296,0-2.72817-0.13686-4.03559-0.3872c2.73286,8.52898,10.65767,14.73574,20.0551,14.91061
	c-7.34897,5.7582-16.6048,9.18958-26.66303,9.18958c-1.73224,0-3.44083-0.09911-5.12113-0.29729
	C12.04959,83.46559,23.33035,87.01968,35.45591,87.01968"/>
</svg>
