<?xml version="1.0" encoding="utf-8"?>
<!-- Generator: Adobe Illustrator 21.1.0, SVG Export Plug-In . SVG Version: 6.00 Build 0)  -->
<svg version="1.1" id="Layer_1" xmlns="http://www.w3.org/2000/svg" xmlns:xlink="http://www.w3.org/1999/xlink" x="0px" y="0px"
	 viewBox="0 0 125.5 89" style="enable-background:new 0 0 125.5 89;" xml:space="preserve">
<style type="text/css">
	.st0{fill:#451807;}
	.st1{fill:#FFFFFF;}
</style>
<path class="st0" d="M120.9448,15.57082c-1.39716-5.22681-5.51361-9.34332-10.74054-10.74048
	c-9.47394-2.53851-47.46331-2.53851-47.46331-2.53851s-37.98932,0-47.46332,2.53851
	C10.05076,6.2275,5.93424,10.34401,4.53709,15.57082c-2.53851,9.474-2.53851,29.24066-2.53851,29.24066s0,19.76667,2.53851,29.24067
	c1.39716,5.22687,5.51367,9.34332,10.74054,10.74048c9.474,2.53857,47.46332,2.53857,47.46332,2.53857s37.98938,0,47.46331-2.53857
	c5.22693-1.39716,9.34338-5.51361,10.74054-10.74048c2.53851-9.474,2.53851-29.24067,2.53851-29.24067
	S123.48331,25.04482,120.9448,15.57082z"/>
<polygon class="st1" points="50.59251,63.0342 50.59251,26.58877 82.15379,44.81203 "/>
</svg>
